<?xml version="1.0" standalone="no"?>
<!DOCTYPE svg PUBLIC "-//W3C//DTD SVG 20010904//EN"
 "http://www.w3.org/TR/2001/REC-SVG-20010904/DTD/svg10.dtd">
<svg version="1.0" xmlns="http://www.w3.org/2000/svg"
 width="1254.000000pt" height="1254.000000pt" viewBox="0 0 1254.000000 1254.000000"
 preserveAspectRatio="xMidYMid meet">

<g transform="translate(0.000000,1254.000000) scale(0.100000,-0.100000)"
fill="#000000" stroke="none">
<path d="M8370 11681 c-6 -12 -17 -21 -25 -21 -8 0 -15 -5 -15 -11 0 -6 -7 -9
-15 -5 -8 3 -15 1 -15 -5 0 -6 -6 -9 -12 -6 -7 2 -18 -8 -24 -23 -9 -20 -23
-30 -55 -38 -23 -6 -46 -9 -51 -6 -4 3 -8 -2 -8 -11 0 -12 -5 -15 -17 -11 -12
5 -27 -5 -50 -30 -18 -21 -43 -38 -55 -39 -15 -1 -25 -12 -33 -35 -8 -23 -20
-37 -41 -44 -42 -14 -54 -30 -54 -75 0 -39 -14 -62 -49 -81 -14 -7 -21 -31
-30 -110 -6 -55 -11 -125 -11 -154 0 -49 -2 -54 -25 -60 -18 -5 -25 -13 -25
-31 0 -13 -4 -35 -10 -50 -8 -21 -5 -35 13 -68 12 -23 25 -43 30 -45 4 -2 7
-11 7 -19 0 -11 6 -14 21 -10 12 3 32 -1 45 -9 18 -12 27 -13 45 -3 19 10 25
9 35 -6 12 -17 14 -16 23 8 12 32 49 43 92 28 43 -15 48 -14 43 7 -5 18 49 82
69 82 7 -1 30 -7 51 -15 22 -8 52 -11 68 -8 17 3 28 1 28 -6 0 -7 8 -7 28 1
17 8 136 14 340 17 222 4 315 9 320 18 4 6 23 13 42 15 31 3 35 6 38 36 4 42
-16 88 -45 101 -32 15 -45 53 -34 101 7 33 6 40 -6 40 -33 0 -60 73 -31 82 9
3 9 12 -1 35 -15 37 -57 53 -75 28 -17 -24 -46 -9 -46 24 0 15 -7 37 -16 49
-8 12 -13 31 -9 41 5 15 1 18 -20 13 -14 -2 -25 0 -25 5 0 6 -11 8 -25 5 -20
-3 -25 0 -25 17 0 11 -5 21 -11 21 -5 0 -9 10 -7 22 3 19 -3 23 -35 29 -21 3
-43 11 -50 18 -6 6 -19 11 -29 11 -20 0 -25 25 -7 36 15 9 -37 41 -76 47 -16
2 -36 0 -43 -6 -21 -17 -67 39 -67 82 0 40 -19 51 -35 22z"/>
<path d="M10453 10643 c-11 -30 -36 -42 -85 -43 -38 0 -48 -4 -53 -21 -4 -11
-4 -24 0 -27 10 -10 226 -15 301 -7 35 3 64 11 64 16 0 5 -9 9 -20 9 -11 0
-20 6 -20 13 0 8 -12 19 -26 26 -19 8 -25 17 -21 31 5 19 0 20 -64 20 -57 0
-71 -3 -76 -17z"/>
<path d="M10788 10646 c-27 -20 -22 -36 12 -36 22 0 30 -5 30 -18 0 -15 6 -17
47 -12 25 3 48 11 51 18 2 6 -1 12 -8 12 -6 0 -23 9 -38 20 -37 26 -73 33 -94
16z"/>
<path d="M9980 10620 c0 -19 -7 -20 -154 -20 -119 0 -156 3 -165 14 -12 14
-51 11 -61 -5 -3 -4 -64 -12 -136 -18 -111 -10 -136 -9 -166 3 -42 18 -145 16
-256 -5 -68 -12 -79 -12 -160 9 -90 23 -206 29 -217 12 -9 -15 -142 -13 -147
2 -3 9 -10 8 -23 -5 -11 -11 -27 -17 -41 -14 -14 2 -30 -3 -40 -14 -9 -10 -30
-21 -48 -24 -17 -4 -38 -9 -47 -11 -9 -3 -23 2 -31 9 -8 8 -24 18 -36 21 -17
6 -22 3 -22 -9 0 -9 -7 -23 -15 -31 -19 -19 -19 -34 0 -34 7 0 18 -6 22 -13 4
-8 17 -17 27 -21 26 -9 126 14 126 29 0 7 10 15 23 19 36 9 107 7 107 -4 0 -5
23 -10 50 -10 28 0 50 5 50 10 0 6 14 10 30 10 17 0 30 -3 30 -7 0 -11 494 -3
498 8 2 5 35 9 73 9 53 0 71 4 75 15 9 22 42 18 55 -6 l11 -22 387 8 c212 4
388 8 389 10 2 2 5 17 6 34 2 30 0 31 -36 31 -21 0 -38 5 -38 11 0 8 -4 8 -13
0 -10 -8 -21 -7 -40 2 -15 6 -27 15 -27 20 0 4 -9 7 -20 7 -13 0 -20 -7 -20
-20z"/>
<path d="M10220 10590 c0 -5 11 -10 24 -10 14 0 28 5 31 10 4 6 -7 10 -24 10
-17 0 -31 -4 -31 -10z"/>
<path d="M8048 10513 c-11 -3 -18 -14 -18 -28 0 -13 -3 -25 -7 -28 -10 -5 12
1 33 9 10 5 17 0 21 -14 6 -24 39 -34 84 -25 31 6 31 7 10 15 -18 6 -22 14
-18 31 9 34 -46 56 -105 40z"/>
<path d="M7878 10478 c24 -24 13 -38 -30 -38 -32 0 -39 -3 -28 -10 8 -5 27
-10 43 -10 20 0 27 -5 27 -19 0 -21 29 -32 60 -24 11 3 20 12 20 19 0 8 4 14
9 14 5 0 11 9 14 20 4 17 0 20 -34 20 -28 0 -41 5 -49 20 -6 11 -18 20 -27 20
-13 0 -14 -3 -5 -12z"/>
<path d="M7700 10419 c-49 -12 -70 -21 -70 -31 0 -6 -14 -8 -34 -5 -27 4 -37
1 -48 -15 -14 -21 -22 -22 -121 -15 -42 3 -60 1 -64 -9 -2 -7 -19 -16 -36 -20
-18 -4 -26 -9 -19 -11 6 -3 12 -11 12 -18 0 -13 -27 -16 -207 -19 -26 0 -43
-5 -43 -12 0 -6 -9 -14 -20 -17 -12 -3 -20 -14 -20 -26 0 -18 -6 -21 -43 -21
-24 0 -48 5 -55 12 -9 9 -12 9 -12 0 0 -7 -8 -12 -18 -12 -9 0 -23 -9 -30 -20
-12 -20 -57 -28 -64 -11 -1 4 -19 11 -39 15 -36 6 -37 6 -46 -32 -9 -34 -7
-40 13 -55 15 -11 32 -15 53 -11 26 6 31 11 31 35 0 27 3 29 40 29 29 0 40 -4
40 -15 0 -8 8 -15 18 -15 10 0 23 -5 29 -11 7 -7 13 -7 17 0 4 5 13 8 20 5 8
-3 17 -1 20 5 4 6 13 8 21 4 9 -3 15 1 15 10 0 8 -6 17 -12 20 -22 8 6 40 42
50 27 7 37 5 45 -7 11 -14 20 -13 95 5 62 14 86 17 96 8 11 -9 18 -8 29 1 8 7
15 9 15 5 0 -4 6 -2 13 4 8 6 16 9 19 6 3 -3 18 1 33 9 24 13 26 16 12 22 -29
11 -20 34 13 34 20 0 30 5 30 15 0 8 9 15 20 15 11 0 20 -7 20 -15 0 -32 59
-15 104 30 28 28 66 33 66 10 0 -11 7 -14 25 -9 14 3 25 2 25 -4 0 -5 11 -9
24 -9 18 0 22 4 19 18 -4 13 0 19 11 19 9 0 16 8 16 19 0 20 -18 31 -50 31
-10 0 -20 4 -22 8 -1 4 -14 5 -28 1z"/>
<path d="M10847 10390 c-4 -15 -14 -20 -36 -20 -25 0 -31 -4 -31 -22 -1 -47
-102 -87 -136 -54 -11 12 -20 14 -28 6 -7 -5 -17 -6 -21 -2 -5 4 -5 2 -1 -5 3
-6 2 -14 -4 -18 -6 -3 -7 -30 -3 -66 5 -49 3 -63 -12 -79 -10 -11 -13 -20 -7
-20 7 0 12 -9 12 -20 0 -17 -7 -20 -49 -20 -68 0 -111 -10 -111 -26 0 -8 -10
-14 -25 -14 -14 0 -25 -4 -25 -10 0 -5 -12 -10 -28 -10 -15 0 -38 -7 -51 -16
-19 -14 -27 -14 -47 -4 -13 7 -26 21 -30 32 -4 14 -15 18 -49 18 -24 0 -45 -4
-47 -10 -1 -5 -60 -13 -130 -16 l-128 -7 0 -44 c0 -38 -3 -45 -27 -54 -24 -9
-25 -11 -11 -26 19 -18 38 -10 38 18 0 15 7 19 35 19 22 0 35 -5 35 -13 0 -7
18 -31 40 -52 22 -21 40 -48 40 -59 0 -19 1 -19 13 -2 28 38 177 65 177 32 0
-9 8 -12 25 -8 17 3 25 0 25 -9 0 -10 3 -10 8 -3 10 16 108 64 116 57 3 -4 6
-1 6 6 0 7 4 10 9 7 5 -4 11 -2 13 3 4 12 103 61 123 61 8 0 15 5 15 10 0 6 3
9 8 8 4 -2 43 16 88 39 45 24 84 40 88 36 3 -3 6 -1 6 6 0 7 5 9 10 6 6 -3 10
4 10 15 0 13 8 24 19 27 24 6 34 43 17 63 -8 8 -16 47 -18 86 l-5 72 47 6 c44
6 48 9 58 45 15 48 15 51 -2 51 -7 0 -16 -9 -19 -20z"/>
<path d="M8863 10293 c-8 -47 -8 -61 3 -74 8 -8 14 -20 14 -26 0 -15 29 -37
37 -29 4 4 7 22 6 41 -1 19 3 35 8 35 5 0 9 7 9 15 0 8 5 15 11 15 8 0 8 5 -1
15 -7 8 -10 26 -8 40 5 23 2 25 -31 25 l-37 0 -11 -57z"/>
<path d="M9030 10319 c0 -5 5 -7 10 -4 6 3 10 8 10 11 0 2 -4 4 -10 4 -5 0
-10 -5 -10 -11z"/>
<path d="M9288 10300 c-12 -17 -29 -30 -38 -29 -29 3 -30 -1 -15 -31 8 -16 15
-38 15 -48 0 -20 18 -32 46 -32 8 0 14 6 14 14 0 8 9 18 20 21 11 4 20 15 20
27 0 11 9 31 20 46 21 26 12 46 -17 35 -7 -3 -16 2 -19 11 -9 23 -21 20 -46
-14z"/>
<path d="M9708 10323 c-10 -2 -18 -8 -18 -13 0 -5 6 -7 13 -4 8 3 21 -9 32
-30 22 -41 55 -54 62 -25 3 10 9 16 14 13 14 -8 10 29 -5 49 -13 16 -56 21
-98 10z"/>
<path d="M9620 10290 c0 -5 0 -13 0 -17 0 -5 3 -8 8 -8 4 0 12 -4 18 -8 7 -4
14 3 16 18 4 21 1 25 -18 25 -13 0 -24 -4 -24 -10z"/>
<path d="M10358 10275 c2 -14 6 -25 8 -25 2 0 4 11 4 25 0 14 -4 25 -9 25 -4
0 -6 -11 -3 -25z"/>
<path d="M8041 10229 c-9 -21 -27 -37 -59 -50 -44 -19 -44 -20 -27 -39 10 -11
29 -20 42 -20 16 0 27 -9 35 -27 l12 -28 4 40 c2 24 11 44 23 53 31 22 41 48
27 76 -15 35 -40 33 -57 -5z"/>
<path d="M8440 10252 c-27 -9 -40 -30 -40 -62 0 -23 -5 -33 -20 -37 -13 -3
-20 -14 -20 -28 0 -13 -7 -30 -15 -38 -13 -13 -13 -16 0 -21 8 -3 25 5 37 18
22 22 76 46 104 46 7 0 16 -9 19 -20 5 -17 15 -20 66 -20 l60 0 -4 45 c-3 33
-11 52 -30 69 -15 14 -29 20 -32 15 -10 -15 -43 -10 -62 9 -22 23 -43 31 -63
24z"/>
<path d="M10010 10249 c0 -6 -7 -9 -14 -6 -10 4 -13 1 -9 -9 3 -9 -6 -27 -21
-43 -29 -30 -27 -67 3 -56 9 4 61 7 116 8 79 1 101 5 106 17 4 8 2 21 -4 28
-7 10 -12 9 -22 -5 -12 -16 -17 -15 -74 7 -50 20 -61 29 -61 47 0 13 -4 23
-10 23 -5 0 -10 -5 -10 -11z"/>
<path d="M8316 10172 c-3 -5 1 -9 9 -9 8 0 12 4 9 9 -3 4 -7 8 -9 8 -2 0 -6
-4 -9 -8z"/>
<path d="M9420 10161 c0 -8 -8 -20 -17 -27 -16 -11 -7 -13 62 -14 79 0 80 0
80 25 0 28 0 28 -72 29 -39 1 -53 -3 -53 -13z"/>
<path d="M9105 10139 c-5 -8 48 -29 73 -29 11 0 12 3 3 14 -13 15 -69 27 -76
15z"/>
<path d="M6563 10098 c-15 -35 15 -58 67 -51 32 5 38 8 26 15 -9 5 -16 14 -16
21 0 11 -43 37 -60 37 -4 0 -11 -10 -17 -22z"/>
<path d="M10443 10103 c9 -2 23 -2 30 0 6 3 -1 5 -18 5 -16 0 -22 -2 -12 -5z"/>
<path d="M7680 10081 c0 -21 -19 -31 -59 -31 -39 0 -61 -32 -61 -88 0 -44 3
-49 35 -66 19 -11 38 -16 42 -13 3 4 -1 7 -10 7 -22 0 -22 19 1 27 9 4 24 16
34 28 14 17 20 19 47 8 17 -6 40 -9 51 -6 14 4 20 0 20 -11 0 -23 21 -20 27 4
4 14 17 22 45 27 31 4 37 8 24 15 -9 5 -16 18 -16 28 0 24 -16 26 -28 4 -10
-17 -52 -11 -52 7 0 15 -23 35 -47 43 -12 4 -24 13 -27 21 -8 21 -26 18 -26
-4z"/>
<path d="M8573 10063 c9 -2 23 -2 30 0 6 3 -1 5 -18 5 -16 0 -22 -2 -12 -5z"/>
<path d="M6420 10052 c-42 -6 -68 -52 -30 -52 11 0 23 -6 26 -14 3 -8 13 -12
26 -8 11 2 23 0 27 -6 4 -7 12 -6 24 3 18 13 18 14 -2 25 -12 6 -21 19 -21 29
0 22 -15 28 -50 23z"/>
<path d="M9322 10006 c-52 -57 -56 -86 -9 -85 17 0 26 3 20 6 -24 9 -13 23 18
23 19 0 38 8 48 19 9 11 30 21 46 23 24 2 29 7 27 23 -5 25 2 22 -58 30 -50 6
-50 6 -92 -39z"/>
<path d="M7270 10015 c0 -10 10 -15 32 -15 30 0 31 1 12 15 -25 19 -44 19 -44
0z"/>
<path d="M7146 9994 c-3 -8 -11 -12 -17 -8 -7 4 -9 3 -6 -4 5 -7 14 -7 31 1
13 7 22 15 20 19 -8 13 -21 9 -28 -8z"/>
<path d="M9630 9975 c-13 -14 -29 -25 -37 -25 -7 0 -13 -7 -13 -15 0 -12 13
-15 55 -15 50 0 55 2 55 22 0 12 7 30 17 40 15 17 14 18 -19 18 -24 0 -42 -8
-58 -25z"/>
<path d="M6291 9968 c-21 -14 -50 -21 -80 -21 -42 0 -60 -9 -61 -29 0 -5 11
-8 24 -8 14 0 28 -5 31 -10 4 -6 16 -8 27 -4 11 3 23 1 27 -5 4 -5 16 -8 28
-5 15 4 23 18 30 55 6 27 10 49 9 48 -1 0 -16 -10 -35 -21z"/>
<path d="M7290 9930 c0 -16 4 -30 8 -30 5 0 7 14 4 30 -2 17 -6 30 -8 30 -2 0
-4 -13 -4 -30z"/>
<path d="M8446 9931 c-49 -35 -98 -38 -128 -8 -23 23 -33 23 -100 6 -28 -7
-38 -15 -38 -29 0 -11 -7 -20 -15 -20 -8 0 -15 -5 -15 -11 0 -8 -20 -10 -67
-6 -38 3 -88 2 -113 -3 -27 -5 -49 -5 -54 1 -15 14 -66 11 -66 -4 0 -17 -102
-51 -132 -44 -34 9 -65 -2 -71 -24 -3 -10 -1 -19 3 -19 15 0 21 -39 10 -61 -8
-15 -19 -20 -35 -17 -16 4 -25 0 -28 -12 -2 -10 -30 -34 -60 -54 -31 -21 -59
-46 -62 -57 -4 -12 -13 -18 -21 -15 -8 3 -14 -1 -14 -9 0 -8 -4 -15 -9 -15 -5
0 -12 -12 -15 -26 -4 -14 -12 -24 -19 -21 -7 2 -22 -7 -34 -20 -17 -18 -23
-36 -23 -73 0 -60 -20 -84 -62 -76 -16 3 -27 2 -23 -3 3 -5 -1 -12 -7 -14 -10
-4 -10 -6 -1 -6 7 -1 15 -17 19 -36 8 -44 -23 -117 -47 -111 -12 2 -15 -2 -12
-15 3 -11 1 -19 -4 -19 -16 0 -29 -43 -27 -90 3 -64 -15 -153 -33 -164 -13 -7
-13 -10 -2 -17 11 -6 14 -42 15 -151 0 -79 4 -160 8 -180 7 -31 5 -38 -7 -38
-20 0 -24 -16 -33 -122 l-6 -88 28 0 c31 0 94 -60 94 -89 -1 -25 -27 -54 -43
-48 -11 4 -14 -1 -13 -18 0 -13 4 -21 8 -19 4 2 9 -4 12 -13 7 -20 54 -46 68
-37 23 14 64 -8 81 -44 18 -37 16 -92 -3 -92 -4 0 -10 -12 -12 -27 -3 -27 -2
-28 38 -29 71 -2 115 -73 59 -94 -15 -6 -25 -17 -25 -29 0 -13 5 -18 14 -15 8
3 16 -3 19 -15 2 -11 15 -21 28 -23 22 -3 24 -8 26 -70 1 -38 -2 -68 -6 -68
-11 0 -123 98 -139 122 -9 12 -21 17 -32 13 -10 -3 -21 -1 -24 4 -4 5 -22 7
-41 4 -26 -4 -35 -2 -35 8 0 8 -9 20 -21 27 -11 7 -19 21 -17 32 5 30 -40 70
-71 64 -21 -4 -34 2 -63 33 -39 41 -60 93 -37 93 26 0 -8 21 -42 26 -19 3 -47
7 -63 9 -43 7 -79 33 -73 55 3 11 -1 21 -9 24 -8 3 -14 12 -14 19 0 8 -7 20
-15 27 -10 9 -15 9 -15 1 0 -18 -35 -13 -55 9 -14 16 -15 24 -7 50 10 28 9 29
-7 20 -11 -5 -20 -25 -24 -49 -6 -50 -23 -67 -86 -87 -46 -15 -50 -20 -60 -60
-9 -34 -17 -45 -37 -50 -14 -4 -28 -4 -31 0 -7 6 -28 -16 -85 -91 -34 -44 -44
-52 -64 -47 -25 6 -27 4 -39 -49 -4 -22 -11 -28 -28 -26 -31 4 -67 -22 -67
-48 0 -18 -6 -23 -25 -23 -16 0 -25 -6 -25 -15 0 -8 -8 -15 -17 -15 -28 -1
-51 -24 -55 -55 -2 -24 -9 -30 -35 -36 -39 -8 -63 -26 -63 -48 -1 -24 -48 -74
-65 -67 -9 3 -15 -1 -15 -9 0 -10 -10 -15 -29 -15 -23 0 -32 -7 -46 -37 -20
-42 -39 -58 -70 -58 -14 0 -20 -7 -20 -25 0 -18 -6 -26 -22 -28 -13 -2 -23
-10 -23 -18 0 -8 -7 -14 -15 -14 -9 0 -15 -9 -15 -24 0 -29 -57 -69 -92 -64
-18 2 -24 -4 -35 -42 -7 -25 -17 -53 -22 -62 -6 -9 -14 -36 -17 -60 -4 -25
-16 -51 -29 -63 -12 -11 -25 -38 -29 -60 -18 -94 -25 -143 -25 -187 -1 -35 -5
-48 -16 -48 -8 0 -19 -9 -25 -19 -13 -25 -40 -153 -34 -163 4 -6 -2 -42 -21
-125 -3 -13 -12 -23 -19 -23 -16 0 -33 -65 -42 -170 -5 -49 -11 -70 -20 -70
-9 0 -14 -12 -14 -35 0 -19 -4 -35 -9 -35 -14 0 -19 -59 -5 -64 20 -8 15 -84
-5 -91 -24 -7 -54 -80 -59 -142 -3 -36 -9 -53 -18 -53 -8 0 -14 -7 -14 -15 0
-8 -9 -15 -20 -15 -27 0 -25 -12 7 -44 52 -52 72 -126 34 -126 -24 0 -31 -29
-20 -77 5 -21 9 -55 9 -75 0 -28 4 -38 16 -38 12 0 15 -7 12 -25 -3 -14 -1
-25 3 -25 5 0 9 -9 9 -20 0 -11 -6 -20 -14 -20 -11 0 -11 -8 -3 -40 6 -22 15
-40 19 -40 4 0 8 -29 8 -65 0 -37 -4 -65 -10 -65 -16 0 -12 -37 5 -44 12 -4
14 -19 10 -75 -4 -54 -2 -73 10 -84 26 -26 12 -67 -23 -67 -23 0 -69 -69 -63
-95 1 -5 0 -24 -4 -42 -5 -27 -11 -33 -31 -33 -13 0 -27 -7 -30 -15 -13 -32
-51 -15 -44 20 1 5 -2 6 -6 2 -15 -15 -18 -44 -9 -92 8 -42 -35 -89 -77 -83
-22 4 -28 1 -23 -9 3 -8 5 -19 5 -24 0 -5 6 -9 13 -9 11 0 15 -51 22 -247 11
-340 10 -363 -20 -391 -14 -13 -25 -27 -25 -32 0 -6 -7 -10 -15 -10 -9 0 -15
-10 -15 -26 0 -19 -4 -25 -17 -22 -35 7 -51 -31 -47 -108 4 -64 2 -73 -21
-100 -14 -16 -25 -33 -25 -38 0 -4 -6 -6 -13 -3 -18 7 -42 -80 -27 -98 17 -21
-1 -145 -22 -145 -4 0 -8 -10 -8 -22 0 -12 -6 -29 -14 -37 -18 -20 -39 -122
-37 -177 2 -45 -28 -90 -53 -81 -10 4 -18 -5 -26 -28 -13 -39 3 -111 29 -133
14 -11 13 -15 -3 -43 -13 -22 -16 -40 -11 -69 7 -39 6 -40 -24 -40 -18 0 -34
-7 -40 -18 -8 -14 -12 -15 -22 -4 -17 16 -32 15 -26 -2 3 -8 3 -17 -1 -20 -11
-12 -9 -45 5 -50 7 -3 13 -14 13 -25 0 -17 7 -19 55 -19 37 0 55 5 55 13 0 7
7 15 15 19 9 3 15 18 15 39 0 20 7 41 18 50 21 19 72 23 72 6 0 -6 9 -8 20 -4
12 4 20 2 20 -5 0 -8 9 -10 25 -6 21 5 25 3 25 -14 0 -12 -5 -30 -10 -41 -7
-13 -7 -19 0 -19 5 0 10 -17 10 -38 0 -29 -7 -45 -29 -66 -15 -15 -32 -26 -37
-25 -21 4 -35 -2 -29 -11 3 -5 0 -10 -7 -10 -8 0 -9 -3 -3 -8 20 -14 39 -78
38 -124 -2 -55 -28 -112 -49 -104 -9 4 -14 -1 -14 -15 0 -11 4 -18 9 -14 20
12 57 -18 75 -61 10 -24 24 -44 32 -44 8 0 14 -8 15 -17 0 -11 3 -13 6 -5 7
18 49 14 64 -7 19 -25 76 -10 89 24 5 13 17 26 27 29 10 3 24 19 31 36 8 17
24 33 38 36 41 10 63 137 26 148 -11 4 -25 18 -32 31 -12 23 -11 29 10 57 20
27 21 35 11 63 -6 17 -11 37 -11 44 0 7 -7 19 -15 27 -8 9 -15 24 -15 35 0 11
-7 19 -16 19 -12 0 -14 7 -9 32 13 66 15 68 51 68 31 0 34 -3 34 -28 0 -38 6
-42 40 -30 22 7 34 6 50 -5 12 -8 30 -13 41 -10 10 3 19 0 19 -6 0 -6 12 -11
26 -11 23 0 25 -3 19 -29 -5 -23 -1 -33 19 -49 26 -20 34 -46 16 -57 -5 -3 -8
-22 -7 -43 1 -28 8 -39 25 -47 12 -5 22 -13 22 -17 0 -4 12 -3 26 3 15 5 27 8
28 7 33 -58 34 -111 1 -137 l-26 -20 48 -6 c26 -3 59 -7 73 -9 15 -3 35 5 53
20 22 18 35 22 60 17 40 -8 49 -20 42 -58 -4 -23 2 -38 23 -62 29 -35 52 -43
52 -19 0 8 7 17 16 20 11 4 14 18 12 53 -3 48 -3 48 -45 57 -36 7 -43 13 -43
32 0 14 6 24 14 24 9 0 12 7 9 19 -3 10 0 22 6 25 8 5 8 13 0 27 -5 11 -9 30
-7 41 4 28 -42 80 -59 66 -20 -16 -43 -1 -43 27 0 18 -5 25 -20 25 -12 0 -20
7 -20 18 0 23 -82 72 -120 72 -17 0 -30 5 -30 10 0 6 -17 10 -38 10 -37 0 -92
19 -92 31 0 17 71 79 92 79 13 0 28 4 33 8 13 9 15 55 3 63 -7 4 -6 19 1 41 7
20 9 76 7 138 -4 94 -10 752 -7 807 1 15 9 23 29 27 31 7 55 49 46 83 -5 18
-1 23 28 28 50 9 138 99 138 140 0 8 6 15 13 15 23 0 67 25 67 38 0 12 14 31
58 76 12 13 22 28 22 34 0 5 7 12 15 16 8 3 20 17 25 31 6 15 14 24 18 21 5
-3 33 19 64 48 47 43 54 54 41 62 -27 17 -7 54 28 54 16 0 29 5 29 10 0 6 -4
10 -10 10 -16 0 -11 42 7 55 20 15 54 133 41 141 -5 3 -6 21 -2 40 3 19 2 40
-4 47 -23 29 -5 137 23 137 8 0 16 -14 20 -31 10 -46 19 -26 22 51 1 38 9 84
16 102 8 18 17 50 21 70 4 21 13 41 20 45 11 7 36 84 36 112 0 6 -9 2 -20 -9
-31 -31 -50 -26 -50 15 0 24 6 39 20 47 12 8 20 24 20 38 0 45 22 80 51 80 22
0 28 6 33 31 3 17 3 42 0 55 -4 16 -1 26 9 30 8 3 18 24 21 48 8 50 30 86 44
71 5 -5 19 -40 31 -76 20 -61 24 -66 47 -61 37 7 64 -23 64 -70 0 -32 -3 -38
-22 -40 -13 0 -30 -1 -38 -2 -8 -1 -17 -17 -22 -40 -7 -34 -5 -40 17 -58 30
-23 32 -58 5 -83 -22 -20 -26 -50 -9 -61 6 -3 9 -20 5 -38 -3 -17 -9 -55 -14
-83 -10 -61 -10 -62 -43 -65 -13 -2 -27 -7 -31 -13 -30 -40 32 -49 68 -9 15
15 39 27 62 30 20 3 50 7 65 9 24 4 30 0 39 -26 6 -16 13 -29 17 -27 4 2 28
12 54 23 26 11 47 26 47 33 0 6 4 12 9 12 5 0 7 8 4 18 -3 13 6 23 34 36 37
18 38 18 56 -5 17 -22 19 -22 53 -5 20 9 40 14 45 11 5 -4 9 -1 9 5 0 7 7 9
16 6 8 -3 12 -2 9 4 -3 6 -1 10 4 10 6 0 11 6 11 14 0 8 15 20 34 27 19 7 37
21 40 32 4 15 11 18 33 13 67 -13 83 -14 83 -4 0 6 3 9 6 5 8 -7 34 17 34 32
0 21 94 49 105 31 11 -17 23 -11 18 9 -3 13 2 21 16 26 12 3 21 14 21 24 0 25
20 41 52 41 38 0 55 17 50 52 -4 24 -1 28 21 28 14 0 27 7 31 15 3 8 11 15 19
15 8 0 13 10 13 22 -1 13 8 27 19 32 11 6 19 18 17 28 -2 9 2 19 7 23 6 3 11
17 11 31 0 16 6 24 18 25 10 0 12 3 5 6 -35 13 2 49 38 38 15 -5 21 2 30 40 6
25 15 48 20 51 5 3 9 13 9 23 0 10 9 21 21 24 11 3 23 15 26 26 3 12 9 21 14
21 5 0 9 7 9 15 0 8 8 23 18 33 10 10 21 26 25 35 3 9 10 17 15 17 4 0 14 16
22 35 9 22 20 35 32 35 18 0 23 18 19 66 -2 26 47 53 60 32 5 -8 9 8 9 39 0
55 14 73 59 73 28 0 44 35 36 77 -6 36 -6 36 25 30 27 -6 30 -4 26 11 -19 61
-26 117 -17 120 6 2 11 10 11 18 0 18 70 20 70 2 1 -7 8 1 17 17 18 32 24 95
10 95 -4 0 -7 17 -5 37 2 28 10 40 33 54 17 10 37 18 46 18 29 2 35 44 38 246
1 110 7 202 12 203 12 5 12 39 -1 47 -6 4 -10 58 -10 130 0 72 4 126 10 130 6
3 10 21 10 40 0 25 5 35 20 40 11 3 20 12 20 20 0 7 28 24 61 37 34 13 64 30
67 38 8 22 54 59 75 60 9 0 17 5 17 10 0 6 9 10 20 10 13 0 20 -7 20 -19 0
-17 3 -18 35 -8 19 6 35 16 35 23 0 19 24 23 70 13 48 -11 81 -6 38 6 -17 4
-28 14 -28 25 0 13 -6 16 -25 12 -18 -3 -25 0 -25 11 0 8 5 17 12 19 14 5 -50
53 -72 54 -8 1 -23 2 -32 3 -10 0 -20 12 -24 26 -3 13 -21 34 -40 46 -19 11
-34 25 -34 31 0 7 -15 8 -39 4 -48 -7 -71 0 -71 24 0 18 -27 30 -172 76 -27 9
-48 21 -48 28 0 20 -106 48 -189 50 -82 1 -131 23 -131 56 0 10 -9 21 -19 25
-11 3 -30 28 -43 54 -13 26 -35 55 -50 64 -16 9 -28 23 -28 32 0 21 -19 54
-53 88 -23 24 -26 35 -21 63 4 24 2 34 -6 34 -8 0 -11 11 -8 30 3 17 0 30 -6
30 -35 1 -83 88 -57 104 12 8 0 53 -23 88 -14 21 -14 33 -2 103 8 44 12 84 9
88 -2 4 -2 26 2 47 6 36 10 40 36 40 16 0 29 -5 29 -11 0 -5 5 -7 10 -4 6 4
24 4 40 0 24 -5 31 -13 36 -43 5 -24 3 -37 -5 -40 -6 -2 -11 -12 -11 -22 0
-10 -6 -21 -12 -24 -7 -2 -2 -4 12 -3 19 2 25 -3 25 -18 0 -31 17 -36 43 -12
20 18 24 19 33 7 5 -8 7 -37 5 -65 -9 -83 -6 -105 14 -127 16 -17 22 -19 34
-9 9 8 28 10 51 5 35 -6 37 -8 31 -38 -19 -93 -19 -104 4 -135 12 -17 28 -31
36 -31 8 0 14 -4 14 -10 0 -5 9 -10 20 -10 11 0 20 -4 20 -8 0 -5 12 -14 26
-21 22 -10 31 -8 59 9 39 24 45 25 45 5 0 -8 7 -15 15 -15 8 0 15 -9 15 -20 0
-11 7 -20 15 -20 8 0 15 -8 15 -18 0 -12 13 -23 35 -32 19 -8 35 -20 35 -27 0
-7 7 -13 16 -13 9 0 12 -5 8 -12 -6 -10 -4 -10 7 0 18 17 39 15 39 -3 0 -8 4
-15 9 -15 5 0 14 7 21 15 28 34 108 3 110 -42 0 -6 8 -9 18 -6 14 3 21 -6 33
-44 9 -28 21 -47 28 -45 7 1 20 -3 28 -10 11 -9 16 -9 23 1 6 11 13 11 39 0
34 -15 42 -39 13 -39 -16 0 -20 -19 -13 -59 1 -3 6 0 13 7 17 17 28 15 28 -4
0 -9 -5 -12 -12 -8 -7 4 -8 3 -4 -5 4 -6 11 -9 16 -6 5 3 11 1 15 -5 10 -16
25 -1 25 26 0 30 19 31 53 1 26 -21 37 -67 18 -67 -5 0 -7 -8 -4 -18 3 -14 12
-17 33 -14 23 3 29 0 33 -19 4 -22 4 -22 6 4 3 73 121 -8 121 -84 0 -22 5 -39
10 -39 6 0 10 -7 10 -16 0 -9 -5 -12 -12 -8 -7 4 -8 3 -4 -5 4 -6 11 -9 16 -6
5 3 11 1 15 -5 3 -5 16 -10 27 -10 12 0 29 -7 39 -16 10 -9 49 -20 90 -25 40
-5 76 -14 80 -20 4 -7 36 -16 71 -21 201 -29 206 -29 245 9 18 17 33 36 33 42
0 6 8 11 18 11 25 0 62 -28 62 -48 0 -11 18 1 55 38 46 47 54 61 55 93 0 32 5
41 30 55 16 9 30 25 30 35 0 9 7 17 17 17 25 0 7 13 -25 17 -87 11 -195 14
-201 5 -3 -5 -41 -13 -83 -17 -70 -7 -78 -6 -78 10 0 15 -7 17 -51 13 -29 -3
-71 0 -94 8 -24 7 -46 10 -48 7 -3 -3 -18 2 -34 10 -15 9 -40 18 -55 21 -19 4
-30 15 -34 31 -9 36 -55 85 -80 85 -12 0 -26 10 -32 23 -8 17 -11 18 -11 5 -1
-20 -18 -23 -40 -9 -12 8 -13 15 -3 35 10 22 8 26 -8 31 -11 4 -20 15 -20 26
0 12 -11 24 -27 31 -64 25 -113 54 -113 65 0 16 -54 53 -78 53 -14 0 -21 9
-25 30 -5 21 -12 30 -27 30 -11 0 -20 5 -20 10 0 6 -7 10 -16 10 -13 0 -15 7
-11 38 9 55 -1 85 -27 78 -11 -3 -28 1 -37 7 -18 14 -34 104 -18 109 6 2 7 20
3 45 -5 36 -10 42 -33 45 -23 3 -27 8 -34 58 -4 30 -9 74 -11 97 -3 49 -11 62
-28 45 -30 -30 -118 -4 -118 35 0 12 -4 23 -10 23 -5 0 -10 9 -10 20 0 11 -4
20 -10 20 -5 0 -10 -4 -10 -9 0 -9 -207 -7 -215 1 -2 2 -5 28 -7 58 -4 48 -27
117 -28 83 0 -16 -30 -17 -30 -2 0 5 -5 7 -11 4 -5 -4 -25 0 -44 9 -37 18 -43
34 -48 136 -2 54 -3 55 -32 56 -52 1 -55 3 -55 33 0 36 25 64 51 56 13 -4 19
-2 19 9 0 17 17 20 44 10 17 -7 22 -44 6 -44 -5 0 -7 -6 -4 -14 3 -9 15 -13
30 -10 16 3 24 0 24 -10 0 -23 27 -26 53 -6 20 16 34 18 76 13 43 -5 51 -9 51
-26 0 -12 -12 -33 -27 -49 -23 -24 -24 -28 -10 -34 9 -3 14 -11 10 -18 -3 -6
-1 -6 8 2 17 16 29 15 29 -3 0 -22 59 -33 239 -45 148 -10 168 -14 200 -36 30
-21 37 -22 39 -9 3 12 13 15 35 13 24 -2 33 -8 35 -25 2 -16 -2 -23 -13 -23
-9 0 -13 -5 -9 -11 4 -8 9 -8 17 0 16 16 27 13 27 -8 0 -12 18 -30 50 -50 31
-19 47 -25 43 -15 -5 14 21 43 39 44 4 0 16 -10 28 -22 21 -23 27 -58 10 -58
-21 0 -9 -19 25 -39 34 -20 35 -20 45 0 8 15 17 18 38 13 43 -11 55 -25 49
-61 -5 -30 -2 -34 44 -62 l49 -31 0 25 c0 21 5 25 30 25 17 0 30 -4 30 -9 0
-4 11 -6 25 -3 15 2 25 0 25 -8 0 -19 53 -66 84 -74 16 -4 30 -15 33 -26 6
-21 29 -25 96 -14 28 5 39 12 43 30 10 41 115 42 145 1 3 -5 57 -4 120 1 175
14 229 14 229 -4 0 -10 7 -13 26 -8 17 4 29 1 37 -9 12 -16 154 -50 169 -41 4
3 8 11 8 19 0 7 14 18 31 24 42 14 42 14 36 -9 -7 -29 14 -68 40 -73 19 -3 23
0 23 19 0 20 5 24 30 24 21 0 35 8 46 25 19 30 19 30 11 225 -4 80 -7 168 -7
197 l0 52 -41 12 c-31 10 -39 17 -36 30 3 10 0 20 -5 21 -6 2 -6 19 2 47 9 36
9 47 -4 66 -9 14 -16 31 -16 40 0 8 -6 15 -14 15 -8 0 -16 5 -18 11 -5 14 -48
-6 -48 -21 0 -6 -7 -10 -15 -10 -17 0 -21 45 -5 55 6 3 7 17 4 30 -3 14 -2 38
4 53 5 16 7 34 3 39 -10 17 -53 36 -60 27 -18 -26 -81 -44 -81 -24 0 6 -8 10
-18 10 -26 0 -61 65 -44 82 7 7 12 15 12 19 0 10 -42 19 -54 11 -6 -4 -24 -7
-41 -8 -16 0 -37 -4 -45 -8 -10 -4 -24 1 -37 13 -30 29 -119 71 -148 71 -14 0
-25 6 -25 13 0 17 -46 57 -65 57 -8 0 -15 4 -15 10 0 5 -17 9 -37 9 -81 -2
-113 3 -113 17 0 8 -7 14 -15 14 -8 0 -15 7 -15 15 0 8 5 15 12 15 6 0 9 3 5
6 -3 4 -58 8 -121 10 -63 1 -125 8 -136 14 -13 7 -38 9 -60 5 -22 -4 -45 -3
-52 1 -7 4 -24 9 -37 10 -14 2 -27 8 -29 14 -2 5 -10 10 -18 10 -8 0 -14 6
-14 14 0 14 -29 26 -68 26 -16 0 -26 -7 -29 -20 -3 -11 -8 -20 -12 -20 -25 1
-96 30 -106 43 -7 9 -20 17 -29 17 -9 0 -16 6 -16 14 0 9 -19 18 -50 25 -70
15 -80 14 -80 -8 0 -14 -10 -22 -32 -26 -28 -7 -36 -3 -58 24 -35 41 -88 42
-144 2z m-17 -221 l83 -11 92 -81 c50 -45 92 -85 94 -89 2 -4 -37 -9 -85 -11
-80 -4 -92 -2 -137 21 -38 21 -51 34 -61 64 -14 42 -51 87 -71 87 -6 0 -17 7
-24 15 -15 19 -6 19 109 5z m1500 -364 l68 -35 47 -97 c49 -103 52 -123 18
-164 l-19 -23 -24 62 c-21 54 -31 66 -81 99 -54 35 -57 38 -68 97 -6 33 -13
68 -16 78 -7 23 -4 22 75 -17z m-3534 -2498 l17 -113 -66 -210 -66 -210 71
-175 72 -175 83 -53 c48 -31 88 -50 95 -46 7 4 9 3 6 -3 -4 -6 20 -28 53 -49
67 -43 62 -34 115 -244 22 -87 26 -119 21 -182 -3 -43 -3 -78 -1 -78 12 0 65
92 59 102 -4 7 -3 8 5 4 18 -11 39 50 47 138 4 42 10 79 14 81 4 3 25 -23 46
-58 27 -43 43 -86 55 -141 l16 -80 32 79 33 78 -52 196 c-28 107 -52 196 -53
197 -1 0 -65 44 -143 97 l-140 96 -37 98 c-21 54 -37 107 -37 118 0 12 34 53
89 105 89 85 89 85 129 195 22 61 44 110 49 110 4 0 13 -47 19 -105 6 -58 14
-134 18 -170 l8 -65 -34 -23 c-18 -12 -55 -42 -82 -66 l-49 -43 13 -47 c12
-45 16 -48 140 -124 71 -42 141 -84 157 -93 28 -15 30 -22 42 -110 6 -52 20
-155 30 -229 l18 -135 -24 -80 c-23 -75 -28 -84 -96 -147 l-72 -67 -8 37 c-5
20 -13 54 -19 75 l-9 39 -62 -59 c-61 -58 -129 -113 -139 -113 -5 0 -13 34
-43 200 -21 109 -25 121 -36 115 -5 -3 -7 0 -4 7 3 7 -8 49 -23 93 l-29 80
-166 84 c-160 80 -166 85 -181 125 -136 366 -128 305 -66 526 55 197 86 314
110 410 42 169 41 167 51 143 4 -12 15 -72 24 -135z"/>
<path d="M6919 9887 c-20 -19 -39 -42 -42 -52 -10 -23 9 -44 33 -38 21 5 28
23 10 23 -5 0 -10 7 -10 15 0 9 9 15 25 15 22 0 25 4 25 35 0 19 -1 35 -3 35
-2 0 -19 -15 -38 -33z"/>
<path d="M5996 9871 c-5 -7 5 -11 28 -11 19 0 36 -5 38 -11 5 -14 48 -3 48 12
0 5 -11 9 -24 9 -13 0 -37 3 -54 6 -17 4 -32 1 -36 -5z"/>
<path d="M6646 9834 c-4 -14 -5 -29 -1 -32 3 -3 5 0 5 6 0 6 10 12 21 14 21 3
21 3 1 21 -19 17 -20 17 -26 -9z"/>
<path d="M7050 9830 c0 -5 -11 -10 -25 -10 -29 0 -75 -43 -75 -69 0 -19 40
-47 49 -34 3 4 12 8 19 9 37 3 40 5 35 25 -4 15 0 22 15 26 30 8 33 26 6 46
-13 10 -24 13 -24 7z"/>
<path d="M5920 9786 c0 -2 8 -10 18 -17 15 -13 16 -12 3 4 -13 16 -21 21 -21
13z"/>
<path d="M6470 9781 c0 -5 7 -11 15 -15 9 -3 15 0 15 9 0 8 -7 15 -15 15 -8 0
-15 -4 -15 -9z"/>
<path d="M6776 9714 c-3 -9 1 -25 9 -37 13 -18 15 -19 15 -4 0 10 7 20 15 23
14 6 13 8 -2 20 -23 18 -30 17 -37 -2z"/>
<path d="M9730 9716 c0 -3 9 -10 20 -16 11 -6 20 -8 20 -6 0 3 -9 10 -20 16
-11 6 -20 8 -20 6z"/>
<path d="M7403 9696 c-13 -6 -23 -15 -23 -20 0 -4 10 -5 23 -1 12 4 30 7 40 8
9 1 17 7 17 14 0 15 -26 15 -57 -1z"/>
<path d="M6250 9671 c0 -5 -8 -12 -19 -16 -10 -3 -32 -25 -47 -48 -16 -23 -36
-47 -44 -54 -13 -10 -13 -12 3 -18 9 -4 17 -13 17 -21 0 -16 12 -18 26 -5 5 5
22 11 38 13 27 3 31 -1 39 -35 8 -32 6 -40 -9 -52 -24 -17 -19 -21 34 -29 26
-4 42 -2 42 4 0 5 7 10 15 10 10 0 15 10 15 29 0 22 6 30 23 35 20 5 23 11 19
36 -4 25 -1 30 17 30 11 0 21 -5 21 -12 0 -6 9 -2 21 11 12 12 18 25 14 29 -4
4 -10 1 -12 -5 -3 -7 -11 -13 -18 -13 -7 0 -16 6 -19 13 -3 8 -9 7 -20 -6 -15
-20 -53 -16 -68 7 -4 6 -8 -4 -8 -21 0 -35 -17 -45 -26 -15 -3 9 -11 27 -17
40 -8 16 -8 25 -1 30 17 11 22 47 8 60 -15 14 -44 16 -44 3z"/>
<path d="M6061 9646 c-8 -10 -9 -16 -1 -21 5 -3 13 1 16 10 9 22 -1 29 -15 11z"/>
<path d="M7157 9616 c-8 -8 -22 -14 -32 -13 -10 1 -21 -8 -26 -20 -7 -20 -5
-23 16 -23 13 0 31 7 39 16 9 8 28 14 42 12 19 -2 29 3 34 17 6 17 3 20 -26
22 -18 2 -39 -3 -47 -11z"/>
<path d="M6893 9548 c-23 -11 -37 -66 -22 -82 5 -6 9 -17 9 -26 0 -12 -10 -16
-42 -15 -36 1 -44 4 -46 23 -2 14 -10 22 -23 22 -10 0 -19 7 -19 15 0 8 -2 15
-5 15 -11 0 -55 -24 -55 -30 0 -6 -75 -30 -94 -30 -3 0 -6 7 -6 15 0 16 -12
20 -23 9 -7 -7 30 -44 45 -44 4 0 8 -7 8 -15 0 -8 -4 -15 -9 -15 -5 0 -11 -10
-14 -22 -4 -15 1 -28 19 -44 21 -21 28 -22 52 -11 15 6 31 17 35 24 4 7 14 13
22 13 7 0 15 4 17 9 2 4 13 12 26 15 17 6 22 3 22 -11 0 -10 9 -24 20 -31 11
-7 20 -19 20 -27 0 -17 25 -20 35 -5 3 6 15 10 25 10 11 0 22 10 26 22 13 43
62 57 117 33 15 -6 17 -4 12 18 -5 19 -1 29 16 41 13 9 18 16 12 16 -6 0 -14
11 -17 24 -3 13 -15 26 -26 29 -11 3 -20 12 -20 20 0 14 -29 29 -75 41 -11 2
-30 0 -42 -6z"/>
<path d="M6485 9405 c-5 -2 -22 -6 -37 -9 -20 -4 -25 -11 -21 -25 5 -19 53
-37 53 -20 0 5 9 9 20 9 15 0 20 7 20 25 0 23 -10 29 -35 20z"/>
<path d="M6217 9389 c7 -7 15 -10 18 -7 3 3 -2 9 -12 12 -14 6 -15 5 -6 -5z"/>
<path d="M7132 8925 c0 -16 2 -22 5 -12 2 9 2 23 0 30 -3 6 -5 -1 -5 -18z"/>
<path d="M8935 8589 c-4 -6 -5 -12 -2 -15 2 -3 7 2 10 11 7 17 1 20 -8 4z"/>
<path d="M8915 8549 c-4 -6 -5 -12 -2 -15 2 -3 7 2 10 11 7 17 1 20 -8 4z"/>
<path d="M9700 8486 c0 -10 28 -13 41 -5 10 6 7 9 -13 9 -16 0 -28 -2 -28 -4z"/>
<path d="M9682 8420 c0 -19 2 -27 5 -17 2 9 2 25 0 35 -3 9 -5 1 -5 -18z"/>
<path d="M9287 8395 c-9 -8 -21 -15 -27 -15 -14 0 -8 -22 7 -27 11 -4 48 45
40 53 -3 3 -12 -2 -20 -11z"/>
<path d="M9914 8324 c-4 -14 -2 -30 5 -37 8 -8 11 -6 11 10 0 12 3 28 6 37 3
9 1 16 -5 16 -6 0 -14 -12 -17 -26z"/>
<path d="M9692 8280 c0 -14 2 -19 5 -12 2 6 2 18 0 25 -3 6 -5 1 -5 -13z"/>
<path d="M9691 8234 c0 -11 3 -14 6 -6 3 7 2 16 -1 19 -3 4 -6 -2 -5 -13z"/>
<path d="M9440 7862 c0 -10 21 -32 31 -32 4 0 5 9 2 20 -5 19 -33 29 -33 12z"/>
<path d="M8790 7496 c0 -2 8 -10 18 -17 15 -13 16 -12 3 4 -13 16 -21 21 -21
13z"/>
<path d="M9759 7453 l-24 -28 28 24 c25 23 32 31 24 31 -2 0 -14 -12 -28 -27z"/>
<path d="M9208 7433 c6 -2 18 -2 25 0 6 3 1 5 -13 5 -14 0 -19 -2 -12 -5z"/>
<path d="M8470 7045 c0 -5 5 -17 10 -25 5 -8 10 -10 10 -5 0 6 -5 17 -10 25
-5 8 -10 11 -10 5z"/>
<path d="M8472 6970 c0 -14 2 -19 5 -12 2 6 2 18 0 25 -3 6 -5 1 -5 -13z"/>
<path d="M8505 6837 c-39 -15 -45 -24 -45 -75 0 -29 6 -50 20 -64 11 -12 20
-30 20 -40 0 -23 -27 -78 -39 -78 -5 0 -11 -8 -13 -17 -4 -14 2 -18 21 -20 38
-2 53 -30 46 -82 -8 -51 -62 -135 -91 -139 -32 -5 -52 -66 -46 -144 l4 -68
-31 0 c-17 0 -31 -4 -31 -10 0 -5 -7 -10 -15 -10 -8 0 -15 5 -15 10 0 22 -15
8 -16 -15 -2 -20 4 -26 25 -31 14 -3 35 -16 46 -28 11 -12 39 -28 63 -35 49
-14 53 -30 17 -77 -21 -28 -23 -34 -10 -44 8 -7 15 -10 15 -6 0 4 11 -1 25
-10 14 -9 32 -13 45 -9 13 4 20 2 20 -7 0 -23 34 -46 52 -35 8 6 23 7 33 3 15
-5 17 -16 12 -72 -2 -36 -10 -71 -16 -77 -18 -18 -14 -94 5 -101 14 -5 16 -16
11 -64 -3 -31 -11 -58 -17 -60 -5 -2 -10 -12 -10 -23 0 -13 -6 -19 -16 -17
-12 2 -20 -10 -30 -42 -18 -58 -18 -57 7 -65 17 -6 18 -9 7 -23 -8 -9 0 -7 20
7 17 12 32 25 32 28 0 3 -7 -1 -16 -8 -14 -11 -16 -10 -13 6 1 11 -2 28 -6 39
-10 23 8 36 51 36 26 0 34 6 45 33 7 17 18 35 23 39 7 5 4 8 -7 8 -14 0 -18 6
-15 27 2 21 10 29 37 36 22 5 36 5 40 -2 4 -6 21 -14 39 -17 28 -6 33 -3 42
20 15 41 12 115 -5 132 -18 18 -19 45 -5 111 9 39 8 56 -5 86 -8 20 -22 37
-29 37 -8 0 -18 9 -21 20 -3 11 -11 20 -16 20 -5 0 -9 7 -9 16 0 8 -4 13 -9
10 -14 -9 -41 4 -41 19 0 7 6 16 13 18 7 3 5 6 -5 6 -10 1 -18 8 -18 18 0 9
-22 38 -50 65 -27 27 -50 57 -50 67 0 10 -7 21 -15 25 -8 3 -15 12 -15 19 0 7
-11 20 -25 27 -30 16 -30 20 -6 62 10 18 22 49 26 68 4 19 16 41 25 47 19 13
20 73 4 184 -6 42 -4 48 16 54 18 6 21 12 15 33 -3 15 -15 33 -25 41 -21 14
-27 41 -11 41 15 0 5 91 -10 101 -16 10 -15 10 -54 -4z"/>
<path d="M4942 6390 c-7 -11 -12 -29 -12 -41 0 -16 -5 -20 -20 -16 -11 3 -20
1 -20 -3 0 -13 -86 -100 -99 -100 -6 0 -11 -7 -11 -15 0 -8 -4 -15 -10 -15 -5
0 -10 -17 -10 -39 0 -44 -19 -66 -50 -56 -14 5 -20 2 -20 -9 0 -9 -4 -16 -8
-16 -4 0 -6 -16 -4 -36 4 -34 3 -36 -24 -34 -59 4 -64 2 -64 -30 0 -40 -33
-78 -53 -61 -12 9 -16 2 -21 -41 -8 -57 -28 -88 -58 -88 -26 0 -54 -31 -50
-57 2 -17 -2 -23 -15 -23 -20 0 -75 -39 -55 -40 23 0 12 -41 -19 -70 -17 -15
-47 -31 -65 -35 -29 -5 -35 -11 -45 -48 -13 -49 -39 -97 -53 -97 -5 0 -22 -13
-38 -30 -15 -16 -34 -30 -41 -30 -14 0 -37 -41 -37 -66 0 -8 -7 -26 -17 -40
-12 -19 -22 -24 -40 -19 -19 4 -23 1 -23 -16 0 -14 -5 -19 -14 -16 -14 6 -66
-41 -66 -59 0 -15 -73 -51 -77 -37 -5 13 -63 -13 -63 -28 0 -17 -29 -41 -40
-34 -5 3 -10 -3 -10 -14 0 -12 -6 -21 -13 -21 -7 0 -23 -9 -35 -20 -12 -11
-29 -20 -40 -20 -10 0 -23 -5 -30 -12 -8 -8 -15 -8 -27 2 -14 11 -17 10 -22
-8 -3 -12 -9 -22 -13 -22 -4 0 -12 -11 -18 -25 -7 -14 -18 -25 -24 -24 -7 1
-29 1 -49 0 -33 -1 -36 -3 -31 -26 4 -25 -11 -35 -23 -15 -10 15 -25 12 -25
-6 0 -22 -28 -47 -45 -40 -8 3 -15 1 -15 -4 0 -6 -5 -10 -11 -10 -7 0 -17 -8
-24 -17 -7 -10 -24 -18 -39 -18 -27 -2 -76 -46 -76 -71 0 -8 -10 -14 -25 -14
-14 0 -25 -5 -25 -11 0 -7 -18 -9 -51 -6 -58 6 -79 1 -79 -19 0 -8 -6 -14 -14
-14 -7 0 -20 -7 -27 -16 -10 -12 -23 -14 -52 -10 -23 4 -45 2 -52 -4 -7 -6
-36 -12 -64 -13 -28 -1 -51 -6 -51 -10 0 -5 -9 -6 -19 -2 -19 6 -51 -17 -51
-36 0 -5 -8 -9 -19 -9 -10 0 -24 -7 -31 -15 -10 -12 -24 -14 -57 -9 -23 3 -63
3 -88 0 -42 -7 -45 -9 -45 -37 0 -16 -6 -29 -12 -30 -7 -1 -49 -3 -93 -5 -44
-2 -81 -8 -83 -14 -2 -5 -10 -10 -17 -10 -8 0 -15 -10 -17 -22 -3 -21 -8 -23
-78 -24 -126 -1 -120 1 -120 -43 0 -47 -22 -73 -59 -71 -44 3 -48 1 -43 -25 5
-29 -15 -58 -35 -51 -9 4 -13 -3 -13 -20 0 -32 -17 -64 -34 -64 -19 0 -46 -34
-46 -58 0 -12 -4 -30 -9 -40 -6 -9 -12 -29 -15 -44 -5 -21 -14 -29 -41 -34
-21 -4 -37 -13 -40 -25 -4 -10 -12 -19 -19 -19 -24 0 -40 -31 -37 -72 2 -47
-20 -78 -56 -78 -34 0 -53 -23 -53 -63 0 -38 -30 -73 -54 -64 -10 4 -17 -3
-21 -24 -4 -16 -11 -29 -16 -29 -5 0 -9 -9 -9 -21 0 -19 4 -18 50 15 28 20 53
36 56 36 12 0 84 66 84 78 0 6 5 12 10 12 6 0 10 7 10 15 0 9 14 16 38 20 40
7 45 9 82 30 17 10 28 11 37 3 7 -6 13 -9 14 -7 0 2 3 13 5 24 3 11 5 32 5 48
0 15 6 27 12 27 7 0 17 8 24 18 8 14 25 19 63 21 42 1 58 7 79 27 51 51 114
95 128 90 8 -4 13 2 13 18 0 25 34 46 75 46 16 0 25 6 25 15 0 9 8 19 17 22
10 4 25 16 34 27 18 22 53 18 85 -12 19 -18 27 -19 143 -8 67 6 125 17 129 23
10 15 122 28 122 14 0 -17 66 -13 84 4 8 8 32 15 55 15 31 0 46 6 65 26 22 25
28 26 80 20 35 -4 56 -2 56 4 0 14 97 13 102 -2 11 -31 196 -1 235 38 9 8 24
13 34 11 10 -3 20 0 21 5 2 6 28 12 58 13 52 2 67 6 115 25 11 4 67 20 125 35
71 19 111 35 122 49 14 16 20 18 26 8 13 -20 190 32 218 64 22 25 50 32 56 13
4 -12 9 -11 255 57 137 38 142 40 136 63 -6 23 -5 23 33 16 51 -11 124 -13
118 -3 -3 5 3 8 13 9 10 0 13 3 6 6 -17 6 -16 63 1 86 8 10 27 17 47 17 41 0
76 38 71 77 -3 18 6 34 35 59 36 33 37 35 16 40 -27 7 -28 13 -8 60 18 44 6
109 -24 131 -24 16 -28 43 -6 43 17 0 20 25 5 35 -5 3 -10 14 -10 24 0 9 -9
27 -20 38 -22 24 -23 40 -17 264 3 81 8 153 13 160 5 8 7 22 6 32 -2 9 2 17 7
17 6 0 11 11 11 25 0 14 -4 25 -9 25 -5 0 -9 20 -9 45 -1 25 3 45 8 45 6 0 10
6 10 14 0 8 8 17 19 21 22 7 33 59 24 120 -4 35 -2 46 16 64 11 11 21 32 21
46 0 27 21 117 30 125 3 3 6 30 7 60 0 30 5 56 10 57 9 3 2 88 -8 98 -3 2 -10
-5 -17 -15z"/>
<path d="M4829 6303 c-13 -16 -12 -17 4 -4 16 13 21 21 13 21 -2 0 -10 -8 -17
-17z"/>
<path d="M8066 5676 c3 -13 0 -34 -6 -46 -9 -17 -18 -21 -40 -16 -31 6 -40 -6
-40 -54 0 -43 -10 -60 -34 -60 -26 0 -46 -18 -46 -41 0 -10 -5 -19 -12 -21 -7
-3 -12 -18 -13 -34 0 -19 -5 -29 -15 -29 -20 0 -50 -38 -50 -63 0 -12 -4 -24
-10 -27 -5 -3 -10 -16 -10 -28 -1 -31 -25 -60 -52 -62 -13 -1 -24 -9 -26 -19
-2 -9 -14 -28 -28 -41 -16 -17 -24 -35 -24 -60 0 -31 -3 -35 -19 -30 -28 9
-55 -39 -52 -95 2 -56 -33 -115 -67 -114 -18 0 -22 -5 -22 -27 0 -37 -9 -59
-25 -59 -7 0 -15 -6 -18 -12 -2 -8 -22 -13 -53 -12 -27 0 -43 -1 -36 -3 6 -3
12 -13 12 -24 0 -17 -5 -19 -37 -14 -26 4 -34 3 -24 -3 7 -5 14 -27 15 -48 l1
-39 -54 -2 c-48 -2 -53 0 -48 17 4 16 1 19 -17 14 -14 -3 -32 3 -49 16 -24 19
-32 21 -56 10 -22 -9 -28 -16 -23 -33 8 -34 20 -45 47 -39 14 2 41 1 60 -2 29
-6 35 -11 35 -32 0 -13 -7 -27 -15 -30 -23 -9 -18 -20 27 -63 37 -34 44 -37
63 -26 11 7 43 15 70 18 l51 6 1 -55 c1 -30 -3 -54 -8 -54 -14 0 -11 -46 4
-59 8 -6 16 -8 20 -5 3 3 14 1 25 -5 13 -7 22 -7 30 1 17 17 42 1 42 -27 0
-14 -4 -25 -10 -25 -18 0 -10 -21 20 -52 17 -16 30 -38 30 -47 0 -15 -9 -18
-55 -19 -35 0 -55 4 -55 11 -1 7 -9 2 -19 -10 -11 -13 -24 -23 -29 -23 -5 0
-12 -9 -15 -20 -3 -11 -12 -20 -20 -20 -8 0 -17 -13 -20 -29 -3 -16 -12 -35
-19 -42 -7 -8 -14 -43 -16 -79 -3 -74 -20 -150 -34 -150 -4 0 -14 -11 -20 -25
-7 -15 -17 -24 -25 -21 -16 6 -16 1 -2 -22 12 -19 -3 -72 -20 -72 -5 0 -15
-16 -21 -35 -9 -28 -19 -37 -48 -45 -20 -6 -46 -17 -56 -25 -19 -15 -19 -15 2
-38 18 -19 22 -35 22 -85 0 -50 -3 -62 -16 -62 -12 0 -15 -6 -11 -22 3 -13 9
-44 12 -69 5 -35 13 -50 31 -60 20 -10 24 -20 24 -61 0 -37 -4 -48 -16 -48
-12 0 -14 -7 -9 -29 4 -19 0 -41 -9 -60 -22 -42 -21 -60 4 -54 14 4 20 0 20
-12 0 -10 7 -23 16 -30 18 -13 32 -104 17 -114 -5 -3 -8 -35 -5 -73 5 -72 20
-88 48 -50 18 23 17 32 -1 32 -21 0 -21 99 0 126 17 22 20 54 5 54 -14 0 -12
68 2 72 7 3 11 18 10 37 -1 17 2 40 8 51 13 25 62 27 86 3 9 -10 22 -18 28
-19 6 0 16 -2 22 -2 14 -2 16 -99 3 -124 -6 -11 -4 -18 6 -22 12 -4 15 -27 15
-114 l0 -109 25 5 c14 2 25 0 25 -6 0 -5 8 -9 18 -8 12 1 17 -6 16 -21 0 -13
5 -23 13 -23 7 0 13 -11 13 -25 0 -15 -6 -25 -14 -25 -7 0 -19 -13 -26 -30 -7
-17 -20 -30 -30 -30 -16 0 -17 -4 -7 -37 6 -21 15 -41 20 -44 5 -4 9 -39 9
-79 1 -66 3 -75 29 -100 35 -33 36 -48 5 -56 -22 -5 -24 -9 -15 -31 5 -13 9
-35 9 -47 0 -18 8 -25 38 -34 20 -6 49 -8 64 -5 19 4 30 1 34 -10 3 -9 13 -13
24 -10 23 6 112 -26 123 -45 6 -9 18 -11 37 -7 16 3 45 2 64 -4 20 -5 36 -6
36 -1 0 15 65 18 88 4 25 -16 30 -62 10 -83 -11 -10 -9 -11 6 -5 16 6 18 4 14
-20 -4 -21 -1 -27 18 -32 13 -3 24 -10 24 -15 0 -5 5 -9 10 -9 6 0 10 27 10
60 0 38 4 60 11 60 8 0 8 5 -1 15 -7 8 -23 15 -35 15 -35 0 -43 18 -48 115 -2
50 -8 98 -12 108 -9 21 -25 23 -25 2 0 -21 -16 -19 -50 7 -23 16 -30 30 -30
55 0 18 4 33 9 33 5 0 12 8 16 17 5 15 4 16 -6 6 -7 -7 -28 -13 -46 -13 -28 0
-33 4 -33 24 0 21 -4 24 -36 23 -37 -1 -54 13 -54 48 0 29 -68 91 -83 76 -17
-17 -45 -13 -52 8 -7 23 4 71 16 71 5 0 9 7 9 15 0 8 4 15 9 15 5 0 11 9 14
21 4 15 12 20 29 17 19 -2 23 -9 24 -37 0 -31 4 -36 39 -48 28 -9 48 -10 75
-3 41 11 100 3 100 -13 0 -5 -8 -16 -17 -23 -12 -9 -13 -13 -5 -14 7 0 29 -7
50 -16 20 -10 42 -18 47 -20 51 -16 54 -15 64 5 8 14 22 21 40 21 31 0 46 21
28 39 -6 6 -19 11 -29 11 -10 0 -18 7 -18 15 0 14 13 20 35 15 5 -1 6 2 2 7
-5 4 -13 9 -18 9 -5 1 -14 2 -20 3 -5 0 -7 7 -3 14 4 6 -2 4 -13 -5 -24 -22
-47 -23 -82 -2 -43 25 -54 50 -41 89 9 26 8 41 -4 69 -13 30 -20 36 -46 36
-26 0 -33 6 -47 37 -9 22 -13 53 -10 73 6 50 -15 107 -53 139 -32 26 -58 100
-44 123 14 22 12 68 -2 68 -8 0 -14 5 -14 10 0 6 -11 10 -23 10 -21 0 -26 8
-37 56 -8 33 -10 58 -4 62 5 4 10 34 12 67 3 58 4 60 60 112 31 28 63 52 70
53 6 0 12 12 12 28 0 33 33 59 133 104 15 7 27 18 27 25 0 7 5 13 10 13 6 0
10 11 10 25 0 26 25 45 59 45 12 0 21 3 21 8 0 14 51 62 60 57 5 -3 14 13 20
37 14 54 34 82 54 75 20 -8 28 6 28 50 0 30 3 34 19 30 16 -4 19 -1 14 13 -15
49 76 148 110 120 17 -14 22 1 31 103 4 53 10 77 19 77 7 0 15 -6 18 -12 4
-10 7 -10 18 0 9 8 10 15 4 20 -14 10 -35 73 -35 105 0 15 -4 27 -10 27 -5 0
-10 20 -10 44 0 24 -5 46 -10 48 -6 2 -12 34 -13 72 -2 52 -7 70 -20 77 -11 7
-17 22 -17 44 0 19 -3 35 -7 35 -15 0 -33 55 -33 100 0 32 -6 53 -20 68 -24
25 -25 36 -6 52 17 13 10 40 -10 40 -8 0 -14 10 -14 24 0 13 -7 27 -16 30 -12
5 -15 15 -12 38 3 18 -1 48 -9 67 -9 20 -12 47 -9 64 7 35 -11 94 -36 119 -10
10 -18 24 -18 31 0 6 -13 20 -29 29 -37 20 -54 85 -27 100 22 12 20 35 -4 41
-12 3 -20 14 -20 27 0 30 -18 60 -36 60 -10 0 -13 -7 -8 -24z"/>
<path d="M8552 5630 c0 -14 2 -19 5 -12 2 6 2 18 0 25 -3 6 -5 1 -5 -13z"/>
<path d="M4841 5354 c0 -11 3 -14 6 -6 3 7 2 16 -1 19 -3 4 -6 -2 -5 -13z"/>
<path d="M8786 5305 c-4 -19 -11 -35 -16 -35 -6 0 -10 -4 -10 -10 0 -5 6 -10
14 -10 8 0 17 -6 19 -12 4 -10 6 -10 6 0 1 7 13 24 29 38 l27 24 -24 20 c-32
27 -38 25 -45 -15z"/>
<path d="M8840 5255 c-24 -25 -42 -45 -39 -45 3 0 25 20 49 45 24 25 42 45 39
45 -3 0 -25 -20 -49 -45z"/>
<path d="M4931 4844 c0 -11 3 -14 6 -6 3 7 2 16 -1 19 -3 4 -6 -2 -5 -13z"/>
<path d="M5121 4724 c0 -11 3 -14 6 -6 3 7 2 16 -1 19 -3 4 -6 -2 -5 -13z"/>
<path d="M4844 4698 l-19 -23 23 19 c21 18 27 26 19 26 -2 0 -12 -10 -23 -22z"/>
<path d="M4872 3910 c0 -14 2 -19 5 -12 2 6 2 18 0 25 -3 6 -5 1 -5 -13z"/>
<path d="M7104 3538 l-19 -23 23 19 c12 11 22 21 22 23 0 8 -8 2 -26 -19z"/>
<path d="M7153 2685 c0 -27 2 -38 4 -22 2 15 2 37 0 50 -2 12 -4 0 -4 -28z"/>
<path d="M7381 2644 c0 -11 3 -14 6 -6 3 7 2 16 -1 19 -3 4 -6 -2 -5 -13z"/>
<path d="M7169 2503 c-13 -16 -12 -17 4 -4 16 13 21 21 13 21 -2 0 -10 -8 -17
-17z"/>
<path d="M8212 2355 c8 -19 8 -28 -2 -40 -10 -12 -10 -19 -2 -27 17 -17 15
-48 -4 -48 -14 0 -14 -1 0 -16 9 -8 16 -20 16 -25 0 -5 10 -1 22 11 23 21 53
26 62 11 3 -4 16 -6 30 -4 22 5 24 2 23 -34 0 -21 -7 -44 -14 -51 -7 -7 -13
-24 -13 -38 0 -17 -6 -24 -19 -24 -27 0 -37 -21 -18 -35 20 -14 22 -36 5 -54
-11 -10 -10 -11 3 -6 10 4 20 2 23 -4 8 -13 45 0 85 30 23 17 34 19 62 12 40
-11 50 -38 18 -46 -22 -6 -22 -7 -5 -26 10 -11 24 -17 32 -14 8 3 14 -1 14 -9
0 -8 9 -23 20 -33 20 -18 21 -18 33 14 7 18 21 34 34 37 25 7 39 34 22 45 -7
4 -9 14 -6 22 5 13 19 15 71 11 60 -4 66 -3 66 15 0 13 9 21 29 26 39 8 46 30
20 66 -18 26 -25 29 -56 23 l-34 -6 6 33 c6 31 3 35 -22 46 -15 7 -35 16 -43
22 -8 5 -27 14 -42 20 -19 7 -28 18 -28 33 0 17 -3 19 -12 10 -16 -16 -38 -15
-38 2 0 8 -15 16 -37 20 -21 3 -48 9 -60 12 -19 5 -23 2 -23 -15 0 -34 -43
-27 -78 13 -22 25 -36 33 -51 29 -12 -3 -21 -1 -21 6 0 6 -17 11 -40 11 -38 0
-39 -1 -28 -25z"/>
<path d="M5162 2258 c6 -18 28 -21 28 -4 0 9 -7 16 -16 16 -9 0 -14 -5 -12
-12z"/>
<path d="M4400 2234 c-16 -10 -39 -13 -67 -9 -49 7 -78 -5 -112 -47 -20 -24
-29 -29 -53 -24 -31 6 -74 -24 -57 -41 5 -5 10 -34 12 -64 l2 -54 -47 0 c-44
0 -46 -1 -30 -18 13 -15 14 -22 4 -37 -15 -25 -15 -39 1 -73 16 -35 44 -44 62
-21 11 16 15 16 30 4 15 -12 19 -12 31 4 7 11 11 29 8 41 -6 26 9 40 54 50 25
5 32 3 32 -9 0 -12 10 -16 43 -16 23 0 48 4 55 9 17 10 38 108 47 219 4 45 11
82 16 82 5 0 9 5 9 10 0 13 -9 11 -40 -6z"/>
<path d="M7461 2134 c0 -11 3 -14 6 -6 3 7 2 16 -1 19 -3 4 -6 -2 -5 -13z"/>
<path d="M5083 1975 c0 -22 2 -30 4 -17 2 12 2 30 0 40 -3 9 -5 -1 -4 -23z"/>
<path d="M8871 1969 c-21 -22 -21 -22 -1 -36 25 -18 40 -9 40 22 0 34 -15 39
-39 14z"/>
<path d="M4328 1893 c7 -3 16 -2 19 1 4 3 -2 6 -13 5 -11 0 -14 -3 -6 -6z"/>
<path d="M5383 1893 c9 -2 23 -2 30 0 6 3 -1 5 -18 5 -16 0 -22 -2 -12 -5z"/>
<path d="M8670 1766 c0 -2 8 -10 18 -17 15 -13 16 -12 3 4 -13 16 -21 21 -21
13z"/>
</g>
</svg>
